HIERARCHY
ROOT Hips
{
	OFFSET 0.000000 121.760803 0.000000
	CHANNELS 6 Xposition Yposition Zposition Xrotation Yrotation Zrotation 
	JOINT Spine
	{
		OFFSET 0.072000 7.257294 -0.789700
		CHANNELS 3 Xrotation Yrotation Zrotation
		JOINT Spine1
		{
			OFFSET 0.000000 12.508769 -0.658067
			CHANNELS 3 Xrotation Yrotation Zrotation
			JOINT Spine1_split
			{
				OFFSET 0.000000 12.508769 -0.658067
				CHANNELS 3 Xrotation Yrotation Zrotation
				JOINT Spine2
				{
					OFFSET 0.000000 12.508769 -0.658067
					CHANNELS 3 Xrotation Yrotation Zrotation
					JOINT Neck
					{
						OFFSET 0.000000 14.033295 7.520400
						CHANNELS 3 Xrotation Yrotation Zrotation
						JOINT Head
						{
							OFFSET 0.000000 8.198502 5.703100
							CHANNELS 3 Xrotation Yrotation Zrotation
							JOINT HeadTop_End
							{
								OFFSET 0.000000 17.760803 13.332701
								CHANNELS 3 Xrotation Yrotation Zrotation
								End Site
								{
									OFFSET 0.000000 0.000000 0.000000
								}
							}
						}
					}
					JOINT LeftShoulder
					{
						OFFSET 6.292450 5.785301 -0.669000
						CHANNELS 3 Xrotation Yrotation Zrotation
						JOINT LeftShoulder_split
						{
							OFFSET 6.292450 5.785301 -0.669000
							CHANNELS 3 Xrotation Yrotation Zrotation
							JOINT LeftArm
							{
								OFFSET 13.907140 -6.093903 1.965100
								CHANNELS 3 Xrotation Yrotation Zrotation
								JOINT LeftForeArm
								{
									OFFSET 34.140198 0.000000 0.000000
									CHANNELS 3 Xrotation Yrotation Zrotation
									JOINT LeftHand
									{
										OFFSET 40.960209 0.000000 0.000000
										CHANNELS 3 Xrotation Yrotation Zrotation
										JOINT LeftHandThumb1
										{
											OFFSET 10.006996 -7.170425 9.573125
											CHANNELS 3 Xrotation Yrotation Zrotation
											JOINT LeftHandThumb2
											{
												OFFSET 1.835007 -1.059448 1.059443
												CHANNELS 3 Xrotation Yrotation Zrotation
												JOINT LeftHandThumb3
												{
													OFFSET 2.112267 -1.219513 1.219518
													CHANNELS 3 Xrotation Yrotation Zrotation
													JOINT LeftHandThumb4
													{
														OFFSET 4.843811 -2.796570 2.796576
														CHANNELS 3 Xrotation Yrotation Zrotation
														End Site
														{
															OFFSET 0.000000 0.000000 0.000000
														}
													}
												}
											}
										}
										JOINT LeftHandIndex1
										{
											OFFSET 18.389847 -0.922348 4.596882
											CHANNELS 3 Xrotation Yrotation Zrotation
											JOINT LeftHandIndex2
											{
												OFFSET 4.711273 0.000000 0.000000
												CHANNELS 3 Xrotation Yrotation Zrotation
												JOINT LeftHandIndex3
												{
													OFFSET 2.886131 0.000000 0.000000
													CHANNELS 3 Xrotation Yrotation Zrotation
													JOINT LeftHandIndex4
													{
														OFFSET 6.145912 0.000000 0.000000
														CHANNELS 3 Xrotation Yrotation Zrotation
														End Site
														{
															OFFSET 0.000000 0.000000 0.000000
														}
													}
												}
											}
										}
										JOINT LeftHandMiddle1
										{
											OFFSET 18.013008 0.000000 0.000000
											CHANNELS 3 Xrotation Yrotation Zrotation
											JOINT LeftHandMiddle2
											{
												OFFSET 4.946693 0.000000 0.000000
												CHANNELS 3 Xrotation Yrotation Zrotation
												JOINT LeftHandMiddle3
												{
													OFFSET 3.342232 0.000000 0.000000
													CHANNELS 3 Xrotation Yrotation Zrotation
													JOINT LeftHandMiddle4
													{
														OFFSET 4.461754 0.000000 0.000000
														CHANNELS 3 Xrotation Yrotation Zrotation
														End Site
														{
															OFFSET 0.000000 0.000000 0.000000
														}
													}
												}
											}
										}
										JOINT LeftHandRing1
										{
											OFFSET 15.849892 -0.102921 -4.126150
											CHANNELS 3 Xrotation Yrotation Zrotation
											JOINT LeftHandRing2
											{
												OFFSET 3.527054 0.000000 0.000000
												CHANNELS 3 Xrotation Yrotation Zrotation
												JOINT LeftHandRing3
												{
													OFFSET 2.961098 0.000000 0.000000
													CHANNELS 3 Xrotation Yrotation Zrotation
													JOINT LeftHandRing4
													{
														OFFSET 4.927200 0.000000 0.000000
														CHANNELS 3 Xrotation Yrotation Zrotation
														End Site
														{
															OFFSET 0.000000 0.000000 0.000000
														}
													}
												}
											}
										}
										JOINT LeftHandPinky1
										{
											OFFSET 12.791824 -0.832031 -6.799156
											CHANNELS 3 Xrotation Yrotation Zrotation
											JOINT LeftHandPinky2
											{
												OFFSET 3.327133 0.000000 0.000000
												CHANNELS 3 Xrotation Yrotation Zrotation
												JOINT LeftHandPinky3
												{
													OFFSET 3.014900 0.000000 0.000000
													CHANNELS 3 Xrotation Yrotation Zrotation
													JOINT LeftHandPinky4
													{
														OFFSET 5.847786 0.000000 0.000000
														CHANNELS 3 Xrotation Yrotation Zrotation
														End Site
														{
															OFFSET 0.000000 0.000000 0.000000
														}
													}
												}
											}
										}
									}
								}
							}
						}
					}
					JOINT RightShoulder
					{
						OFFSET -6.292450 5.785301 -0.669000
						CHANNELS 3 Xrotation Yrotation Zrotation
						JOINT RightShoulder_split
						{
							OFFSET -6.292450 5.785301 -0.669000
							CHANNELS 3 Xrotation Yrotation Zrotation
							JOINT RightArm
							{
								OFFSET -13.907140 -6.093903 1.965100
								CHANNELS 3 Xrotation Yrotation Zrotation
								JOINT RightForeArm
								{
									OFFSET -34.140198 0.000000 0.000000
									CHANNELS 3 Xrotation Yrotation Zrotation
									JOINT RightHand
									{
										OFFSET -40.960209 0.000000 0.000000
										CHANNELS 3 Xrotation Yrotation Zrotation
										JOINT RightHandThumb1
										{
											OFFSET -10.007050 -7.170456 9.573117
											CHANNELS 3 Xrotation Yrotation Zrotation
											JOINT RightHandThumb2
											{
												OFFSET -1.835007 -1.059448 1.059443
												CHANNELS 3 Xrotation Yrotation Zrotation
												JOINT RightHandThumb3
												{
													OFFSET -2.112267 -1.219513 1.219518
													CHANNELS 3 Xrotation Yrotation Zrotation
													JOINT RightHandThumb4
													{
														OFFSET -4.843834 -2.796585 2.796590
														CHANNELS 3 Xrotation Yrotation Zrotation
														End Site
														{
															OFFSET 0.000000 0.000000 0.000000
														}
													}
												}
											}
										}
										JOINT RightHandIndex1
										{
											OFFSET -18.389870 -0.922424 4.596786
											CHANNELS 3 Xrotation Yrotation Zrotation
											JOINT RightHandIndex2
											{
												OFFSET -4.711273 0.000000 0.000000
												CHANNELS 3 Xrotation Yrotation Zrotation
												JOINT RightHandIndex3
												{
													OFFSET -2.886131 0.000000 0.000000
													CHANNELS 3 Xrotation Yrotation Zrotation
													JOINT RightHandIndex4
													{
														OFFSET -6.145920 0.000000 0.000000
														CHANNELS 3 Xrotation Yrotation Zrotation
														End Site
														{
															OFFSET 0.000000 0.000000 0.000000
														}
													}
												}
											}
										}
										JOINT RightHandMiddle1
										{
											OFFSET -18.013008 0.000000 0.000000
											CHANNELS 3 Xrotation Yrotation Zrotation
											JOINT RightHandMiddle2
											{
												OFFSET -4.946693 0.000000 0.000000
												CHANNELS 3 Xrotation Yrotation Zrotation
												JOINT RightHandMiddle3
												{
													OFFSET -3.342232 0.000000 0.000000
													CHANNELS 3 Xrotation Yrotation Zrotation
													JOINT RightHandMiddle4
													{
														OFFSET -4.461754 0.000000 0.000000
														CHANNELS 3 Xrotation Yrotation Zrotation
														End Site
														{
															OFFSET 0.000000 0.000000 0.000000
														}
													}
												}
											}
										}
										JOINT RightHandRing1
										{
											OFFSET -15.849876 -0.102936 -4.126237
											CHANNELS 3 Xrotation Yrotation Zrotation
											JOINT RightHandRing2
											{
												OFFSET -3.527054 0.000000 0.000000
												CHANNELS 3 Xrotation Yrotation Zrotation
												JOINT RightHandRing3
												{
													OFFSET -2.961098 0.000000 0.000000
													CHANNELS 3 Xrotation Yrotation Zrotation
													JOINT RightHandRing4
													{
														OFFSET -4.927200 0.000000 0.000000
														CHANNELS 3 Xrotation Yrotation Zrotation
														End Site
														{
															OFFSET 0.000000 0.000000 0.000000
														}
													}
												}
											}
										}
										JOINT RightHandPinky1
										{
											OFFSET -12.791786 -0.832077 -6.799222
											CHANNELS 3 Xrotation Yrotation Zrotation
											JOINT RightHandPinky2
											{
												OFFSET -3.327133 0.000000 0.000000
												CHANNELS 3 Xrotation Yrotation Zrotation
												JOINT RightHandPinky3
												{
													OFFSET -3.014900 0.000000 0.000000
													CHANNELS 3 Xrotation Yrotation Zrotation
													JOINT RightHandPinky4
													{
														OFFSET -5.847786 0.000000 0.000000
														CHANNELS 3 Xrotation Yrotation Zrotation
														End Site
														{
															OFFSET 0.000000 0.000000 0.000000
														}
													}
												}
											}
										}
									}
								}
							}
						}
					}
				}
			}
		}
	}
	JOINT LeftUpLeg
	{
		OFFSET 13.026900 -6.336304 -1.092800
		CHANNELS 3 Xrotation Yrotation Zrotation
		JOINT LeftLeg
		{
			OFFSET 0.524474 -46.096886 9.782700
			CHANNELS 3 Xrotation Yrotation Zrotation
			JOINT LeftFoot
			{
				OFFSET -0.524474 -53.427422 -12.948200
				CHANNELS 3 Xrotation Yrotation Zrotation
				JOINT LeftToeBase
				{
					OFFSET 0.192200 -14.009700 16.364100
					CHANNELS 3 Xrotation Yrotation Zrotation
					JOINT LeftToe_End
					{
						OFFSET -1.784700 -0.561700 9.474800
						CHANNELS 3 Xrotation Yrotation Zrotation
						End Site
						{
							OFFSET 0.000000 0.000000 0.000000
						}
					}
				}
			}
		}
	}
	JOINT RightUpLeg
	{
		OFFSET -12.883000 -6.336304 -1.092800
		CHANNELS 3 Xrotation Yrotation Zrotation
		JOINT RightLeg
		{
			OFFSET -0.524587 -46.096825 9.782800
			CHANNELS 3 Xrotation Yrotation Zrotation
			JOINT RightFoot
			{
				OFFSET 0.524587 -53.427383 -12.948300
				CHANNELS 3 Xrotation Yrotation Zrotation
				JOINT RightToeBase
				{
					OFFSET -0.192200 -14.009700 16.364100
					CHANNELS 3 Xrotation Yrotation Zrotation
					JOINT RightToe_End
					{
						OFFSET 1.784700 -0.561700 9.474800
						CHANNELS 3 Xrotation Yrotation Zrotation
						End Site
						{
							OFFSET 0.000000 0.000000 0.000000
						}
					}
				}
			}
		}
	}
}
MOTION
Frames: 4
Frame Time: 0.016667
-0.526188 105.587799 7.163101 -13.182397 -1.788513 -5.320287 5.924459 -0.672388 3.283422 9.021538 -0.430000 -0.455594 0.000000 0.000000 0.000000 9.028558 -0.103888 -0.473627 15.499586 0.680418 0.863641 -2.573554 0.818022 5.726066 0.000001 -0.000000 0.000000 0.681785 3.908470 -11.397480 0.000000 0.000000 0.000000 74.323550 -65.285496 4.646512 0.000002 -18.010068 -0.000007 -25.659110 7.272746 -3.768724 21.734270 5.841478 -2.497395 -16.162774 18.936378 19.036145 -9.576521 8.451320 10.577064 -0.000001 -0.000001 -0.000001 0.152625 1.444570 -12.061574 0.086639 1.090999 -9.079582 0.021680 0.547231 -4.539365 0.000001 0.000001 -0.000002 0.152216 1.442682 -12.045584 0.086930 1.092922 -9.095554 0.021683 0.547212 -4.539386 0.000002 0.000002 -0.000002 0.152624 1.444566 -12.061577 0.086634 1.091018 -9.079575 0.021687 0.547213 -4.539373 0.000002 0.000002 0.000001 0.985200 5.412795 -11.600978 0.078383 -2.964047 -9.583893 0.021694 0.547217 -4.539380 0.000001 0.000000 0.000001 1.412996 0.332767 10.813723 0.000000 0.000000 0.000000 8.850510 40.127184 57.894043 -0.000014 26.003474 0.000004 37.130356 -9.963343 12.845714 -0.389747 -6.638715 -15.665604 8.907260 -22.771347 0.157761 0.754318 -6.942793 -2.431191 -0.000001 0.000001 0.000002 0.174545 -1.551256 12.839266 0.140302 -1.392636 11.506932 0.035169 -0.699829 5.752617 0.000001 0.000000 -0.000000 0.174542 -1.551242 12.839273 0.140306 -1.392661 11.506922 0.035160 -0.699819 5.752628 -0.000000 -0.000000 -0.000003 0.174547 -1.551251 12.839273 0.140304 -1.392647 11.506928 0.035164 -0.699831 5.752619 0.000000 0.000002 -0.000001 0.174545 -1.551252 12.839268 0.140308 -1.392654 11.506928 0.035158 -0.699818 5.752623 -0.000000 -0.000001 -0.000000 -32.029848 20.752012 10.807657 41.363714 -8.739162 10.092033 0.589125 -8.142121 -0.275432 -0.920812 -0.000001 0.000001 -0.000000 -0.000000 -0.000000 -23.493424 -35.583728 -0.738627 38.889390 9.063191 -10.361875 -1.904400 6.933634 -5.914191 -0.000018 0.000002 -0.000002 0.000000 0.000002 -0.000000 
-0.506894 105.589661 7.163149 -13.186170 -1.826471 -5.302619 5.923434 -0.668304 3.275947 9.018470 -0.421016 -0.454876 0.000000 0.000000 0.000000 9.025360 -0.094397 -0.473342 15.500809 0.683413 0.851795 -2.570585 0.837382 5.719963 0.000002 -0.000000 -0.000000 0.682937 3.924066 -11.425493 0.000000 0.000000 0.000000 74.279728 -65.233887 4.636001 0.000008 -18.066231 0.000006 -25.471758 7.330778 -3.951199 21.734268 5.841479 -2.497395 -16.162770 18.936377 19.036147 -9.576513 8.451317 10.577064 0.000000 -0.000000 -0.000001 0.152623 1.444570 -12.061572 0.086637 1.090999 -9.079585 0.021683 0.547232 -4.539369 -0.000001 -0.000001 0.000002 0.152216 1.442682 -12.045583 0.086929 1.092922 -9.095555 0.021683 0.547211 -4.539382 -0.000002 0.000001 0.000000 0.152621 1.444567 -12.061575 0.086638 1.091019 -9.079580 0.021687 0.547211 -4.539372 0.000000 0.000000 -0.000002 0.985195 5.412796 -11.600977 0.078383 -2.964046 -9.583895 0.021692 0.547218 -4.539377 0.000001 0.000000 0.000002 1.413249 0.336095 10.799355 0.000000 0.000000 0.000000 8.846311 40.120473 57.885040 0.000014 26.006517 -0.000022 37.193064 -9.934876 12.879310 -0.389746 -6.638717 -15.665607 8.907262 -22.771349 0.157761 0.754319 -6.942795 -2.431192 0.000001 0.000001 -0.000001 0.174547 -1.551257 12.839268 0.140302 -1.392636 11.506930 0.035169 -0.699828 5.752624 0.000000 0.000000 0.000001 0.174544 -1.551242 12.839275 0.140308 -1.392662 11.506923 0.035160 -0.699820 5.752627 -0.000000 0.000000 -0.000003 0.174549 -1.551252 12.839274 0.140304 -1.392647 11.506931 0.035167 -0.699829 5.752616 0.000003 0.000001 -0.000002 0.174548 -1.551253 12.839271 0.140309 -1.392653 11.506929 0.035157 -0.699817 5.752620 -0.000000 -0.000001 0.000001 -32.020767 20.813787 10.805379 41.356119 -8.740340 10.092194 0.586032 -8.153691 -0.262041 -0.918806 0.000003 0.000002 -0.000000 0.000000 0.000000 -23.502713 -35.482440 -0.731215 38.894208 9.060987 -10.362865 -1.898491 6.887667 -5.888335 -0.000018 0.000000 -0.000002 0.000000 0.000000 0.000000 
-0.489036 105.590637 7.163633 -13.190200 -1.861761 -5.283350 5.922519 -0.664575 3.265773 9.015933 -0.413235 -0.454230 0.000000 0.000000 0.000000 9.022702 -0.086283 -0.473040 15.501748 0.686838 0.839503 -2.569939 0.854904 5.720952 0.000001 -0.000000 0.000000 0.684058 3.939020 -11.452423 0.000000 0.000000 0.000000 74.202499 -65.177825 4.592541 0.000019 -18.130756 0.000004 -25.270460 7.391031 -4.135350 21.734270 5.841478 -2.497395 -16.162772 18.936378 19.036149 -9.576514 8.451318 10.577064 0.000001 -0.000001 -0.000000 0.152625 1.444570 -12.061574 0.086641 1.091000 -9.079586 0.021683 0.547232 -4.539369 0.000002 -0.000001 -0.000000 0.152220 1.442682 -12.045584 0.086933 1.092921 -9.095559 0.021684 0.547213 -4.539380 -0.000000 0.000001 0.000001 0.152627 1.444566 -12.061578 0.086636 1.091018 -9.079575 0.021683 0.547212 -4.539377 -0.000000 0.000001 -0.000002 0.985200 5.412796 -11.600978 0.078382 -2.964046 -9.583897 0.021690 0.547215 -4.539377 -0.000001 0.000001 -0.000003 1.414563 0.343948 10.791924 0.000000 0.000000 0.000000 8.851288 40.106645 57.862740 0.000003 26.024366 0.000002 37.255765 -9.909318 12.917784 -0.389746 -6.638715 -15.665604 8.907257 -22.771345 0.157765 0.754318 -6.942791 -2.431193 -0.000000 0.000001 -0.000002 0.174547 -1.551256 12.839268 0.140303 -1.392637 11.506931 0.035171 -0.699830 5.752620 -0.000002 0.000001 -0.000001 0.174542 -1.551242 12.839275 0.140307 -1.392663 11.506925 0.035161 -0.699819 5.752627 -0.000002 0.000001 -0.000001 0.174547 -1.551252 12.839273 0.140302 -1.392646 11.506926 0.035166 -0.699830 5.752619 -0.000001 0.000000 0.000002 0.174547 -1.551252 12.839269 0.140308 -1.392654 11.506930 0.035157 -0.699817 5.752625 -0.000000 -0.000001 0.000000 -32.010638 20.872527 10.800274 41.349320 -8.741367 10.092338 0.582789 -8.164024 -0.248958 -0.917046 0.000003 0.000001 -0.000000 -0.000000 0.000000 -23.515199 -35.385728 -0.728878 38.902087 9.057621 -10.364952 -1.893974 6.851129 -5.862643 -0.000018 0.000000 -0.000002 -0.000000 -0.000002 -0.000000 
-0.473452 105.590172 7.164740 -13.194337 -1.893224 -5.262735 5.921646 -0.661287 3.252725 9.013795 -0.406899 -0.453622 0.000000 0.000000 0.000000 9.020472 -0.079824 -0.472674 15.502865 0.690591 0.827108 -2.571724 0.869698 5.729455 0.000000 -0.000000 -0.000000 0.685121 3.952922 -11.477674 0.000000 0.000000 0.000000 74.095832 -65.119222 4.518438 0.000006 -18.201443 0.000010 -25.061827 7.453140 -4.314690 21.734272 5.841479 -2.497395 -16.162774 18.936380 19.036145 -9.576514 8.451319 10.577064 0.000002 0.000001 -0.000000 0.152627 1.444570 -12.061575 0.086641 1.091000 -9.079583 0.021682 0.547231 -4.539372 0.000002 -0.000001 0.000002 0.152219 1.442682 -12.045582 0.086931 1.092921 -9.095555 0.021683 0.547212 -4.539385 0.000001 -0.000000 0.000001 0.152625 1.444566 -12.061577 0.086635 1.091019 -9.079578 0.021687 0.547212 -4.539374 0.000001 -0.000001 0.000001 0.985196 5.412795 -11.600979 0.078383 -2.964047 -9.583897 0.021688 0.547216 -4.539377 0.000002 0.000001 -0.000002 1.416786 0.355709 10.790262 0.000000 0.000000 0.000000 8.863893 40.086554 57.830590 0.000012 26.055138 0.000004 37.317039 -9.887083 12.959795 -0.389746 -6.638715 -15.665609 8.907258 -22.771350 0.157760 0.754317 -6.942796 -2.431196 -0.000001 -0.000002 0.000001 0.174546 -1.551256 12.839268 0.140303 -1.392636 11.506931 0.035171 -0.699831 5.752623 -0.000001 0.000000 -0.000002 0.174542 -1.551242 12.839273 0.140309 -1.392662 11.506922 0.035162 -0.699819 5.752626 -0.000000 0.000000 -0.000001 0.174546 -1.551252 12.839272 0.140305 -1.392646 11.506926 0.035164 -0.699830 5.752617 0.000000 -0.000000 0.000002 0.174545 -1.551252 12.839271 0.140311 -1.392655 11.506930 0.035156 -0.699817 5.752621 -0.000001 -0.000000 -0.000001 -32.000556 20.926120 10.792598 41.345061 -8.742297 10.092544 0.578864 -8.172499 -0.237718 -0.915563 0.000005 -0.000003 -0.000000 0.000000 0.000000 -23.531667 -35.296833 -0.732726 38.914111 9.052688 -10.368326 -1.891504 6.827438 -5.837872 -0.000018 -0.000000 -0.000002 -0.000000 -0.000002 0.000000 
